<svg xmlns="http://www.w3.org/2000/svg" width="78" height="25" viewBox="-0.065 0 78 25" enable-background="new -0.065 0 78 25"><g><path fill="#fff" d="M22.994 19.293c-.48-.11-.992-.18-1.51-.18-.883 0-1.687.15-2.28.398-.065.034-.112.105-.112.18 0 .028.007.058.018.08.07.204-.045.425-.62.552-.85.188-1.39 1.064-1.696 1.355-.36.344-1.38.555-1.228.35.12-.158.58-.656.858-1.195.25-.482.473-.62.778-1.078.09-.135.438-.61.54-.982.114-.365.076-.824.12-1.014.06-.273.32-.863.338-1.197.013-.188-.788.27-1.167.27s-.75-.228-1.088-.24c-.42-.02-.688.32-1.068.263-.216-.035-.398-.227-.776-.24-.54-.02-1.197.3-2.436.262-1.218-.04-2.342-1.54-2.495-1.777-.182-.28-.4-.28-.64-.06-.24.22-.536.046-.62-.103-.158-.277-.586-1.096-1.247-1.268-.914-.236-1.378.506-1.316 1.098.06.602.448.77.628 1.088.18.32.27.525.61.666.24.103.33.247.258.444-.063.172-.313.21-.478.22-.348.017-.592-.08-.77-.19-.208-.135-.376-.316-.558-.627-.21-.346-.54-.494-.923-.494-.183 0-.354.05-.506.127-.602.312-1.317.498-2.088.498H.65C2.318 21.438 6.993 25 12.5 25c4.4-.002 8.268-2.273 10.494-5.707z"/><g><g fill="#fff"><path d="M24.875 18.625h.11l.172.28h.11l-.186-.286c.097-.013.17-.063.17-.177 0-.13-.077-.186-.23-.186h-.245v.646h.1v-.278zm0-.082v-.2h.133c.067 0 .14.015.14.093 0 .102-.073.107-.155.107h-.118zM25.623 18.582c0 .348-.283.633-.632.633-.35 0-.63-.285-.63-.633s.282-.63.63-.63c.348 0 .633.282.633.63zm-.633-.52c-.288 0-.52.232-.52.52 0 .29.232.52.52.52.287 0 .52-.23.52-.52 0-.285-.233-.52-.52-.52z"/></g><path d="M22.994 19.293c-.48-.11-.992-.18-1.51-.18-.883 0-1.687.152-2.28.398-.065.034-.112.105-.112.18 0 .028.007.06.018.083.07.2-.045.424-.62.55-.85.187-1.39 1.063-1.696 1.356-.36.34-1.38.552-1.228.35.12-.16.58-.66.858-1.196.25-.482.473-.62.778-1.078.09-.137.438-.61.54-.982.114-.365.076-.824.12-1.014.06-.273.32-.865.338-1.2.013-.187-.788.27-1.167.27s-.75-.226-1.088-.24c-.42-.02-.688.323-1.068.263-.216-.035-.398-.225-.776-.24-.54-.02-1.197.3-2.436.262-1.218-.04-2.342-1.54-2.495-1.777-.182-.28-.4-.28-.64-.06-.24.22-.536.046-.62-.103-.158-.277-.586-1.096-1.247-1.266-.914-.24-1.378.505-1.316 1.097.06.6.448.77.628 1.086.18.32.27.527.61.668.24.103.33.25.258.444-.063.172-.313.21-.478.22-.348.017-.592-.08-.77-.19-.208-.135-.376-.316-.558-.627-.21-.346-.54-.494-.923-.494-.183 0-.354.05-.506.127-.602.312-1.317.498-2.088.498H.65C.23 15.242 0 13.896 0 12.5 0 5.596 5.597 0 12.5 0S25 5.594 25 12.5c0 2.504-.736 4.836-2.006 6.793zM31.373 13.287c0-1.146-.024-1.99-.07-2.75h1.875l.08 1.624h.062c.42-1.204 1.42-1.82 2.346-1.82.21 0 .332.01.506.048v2.04c-.203-.04-.392-.06-.65-.06-1.033 0-1.75.655-1.94 1.637-.038.19-.058.42-.058.652v4.44h-2.167l.016-5.81zM38.786 15.398c.058 1.553 1.26 2.23 2.646 2.23.996 0 1.71-.154 2.363-.396l.32 1.49c-.732.312-1.75.543-2.992.543-2.78 0-4.41-1.717-4.41-4.34 0-2.365 1.433-4.6 4.188-4.6 2.785 0 3.69 2.29 3.69 4.165 0 .402-.036.725-.075.926l-5.73-.018zm3.765-1.507c.01-.792-.333-2.084-1.784-2.084-1.332 0-1.887 1.208-1.984 2.085h3.77zM51.756 15.385c0 .23-.016.44-.064.633-.218.938-.984 1.54-1.87 1.54-1.362 0-2.144-1.147-2.144-2.722 0-1.59.773-2.82 2.168-2.82.975 0 1.67.687 1.86 1.52.038.175.05.394.05.565v1.285zm2.166-8.147l-2.164-.61v4.83h-.037c-.382-.633-1.228-1.115-2.398-1.115-2.06 0-3.853 1.705-3.84 4.574 0 2.633 1.62 4.377 3.665 4.377 1.236 0 2.27-.59 2.78-1.55h.038l.097 1.358h1.93c-.04-.582-.07-1.525-.07-2.402V7.238zM59.647 10.332c-.65 0-1.237.188-1.73.49-.51.3-.923.76-1.17 1.235h-.032V8.05l-.85-.252v11.3h.85v-5.24c0-.35.024-.59.115-.845.364-1.067 1.368-1.942 2.584-1.942 1.754 0 2.36 1.408 2.36 2.95v5.077h.85V13.93c0-3.193-2.165-3.598-2.977-3.598zM70.23 17.062c0 .678.027 1.38.127 2.035h-.78l-.125-1.23h-.04c-.416.66-1.37 1.425-2.732 1.425-1.725 0-2.526-1.215-2.526-2.357 0-1.977 1.747-3.17 5.233-3.133v-.23c0-.848-.166-2.54-2.193-2.525-.75 0-1.53.2-2.15.638l-.27-.617c.783-.53 1.738-.74 2.514-.74 2.475 0 2.946 1.857 2.946 3.39l-.003 3.344zm-.847-2.544c-1.864-.053-4.33.23-4.33 2.287 0 1.23.812 1.785 1.707 1.785 1.428 0 2.238-.885 2.535-1.72.062-.183.088-.366.088-.513v-1.84zM73.606 8.64v1.888h2.442v.688h-2.442v5.572c0 1.09.338 1.77 1.26 1.77.44 0 .753-.057.974-.133l.103.656c-.276.116-.665.208-1.185.208-.625 0-1.143-.197-1.48-.61-.387-.448-.52-1.17-.52-2.044v-5.417h-1.445v-.688h1.445V8.95l.848-.313zM77.12 18.643h.113l.17.28h.11l-.186-.286c.096-.012.168-.06.168-.176 0-.128-.076-.185-.23-.185h-.244v.646h.1v-.277zm0-.084v-.2h.134c.066 0 .14.016.14.094 0 .102-.072.105-.156.105h-.117zM77.87 18.6c0 .35-.284.63-.634.63s-.632-.28-.632-.63c0-.348.282-.63.632-.63s.633.282.633.63zm-.634-.522c-.287 0-.52.234-.52.52s.232.52.52.52.52-.23.52-.52-.233-.52-.52-.52zM15.254 18.146c.063.062.174.273.04.54-.077.144-.16.243-.305.36-.177.14-.522.303-.992.004-.254-.162-.27-.217-.618-.17-.25.033-.35-.22-.262-.43.09-.21.46-.38.92-.11.206.122.527.378.81.15.117-.093.188-.153.35-.343.008-.01.018-.014.03-.014.008.004.02.008.026.013z"/></g><path fill="#c00" d="M11.528 5.95c-1.443.105-1.594.26-1.863.548-.383.407-.885-.527-.885-.527-.3-.062-.667-.55-.47-1.003.194-.45.553-.314.666-.175.137.17.43.45.808.438.38-.01.816-.09 1.427-.09.62 0 1.034.23 1.057.43.018.172-.05.33-.74.38zm1.517-2.386h-.006c-.023 0-.042-.017-.042-.038 0-.015.01-.028.022-.035.28-.146.698-.265 1.176-.313.145-.016.284-.022.42-.024h.07c.8.02 1.442.336 1.432.71-.01.376-.666.664-1.467.647-.258-.006-.502-.044-.71-.104-.025-.006-.044-.028-.044-.052 0-.025.02-.046.043-.053.5-.115.837-.304.813-.482-.03-.237-.687-.366-1.46-.288-.085.01-.167.022-.248.034zm6.51 5.608c-.125.415-.3.946-1.08 1.348-.115.06-.158-.037-.105-.127.295-.502.348-.627.434-.826.12-.29.184-.7-.055-1.562-.473-1.692-1.452-3.954-2.165-4.687-.69-.708-1.937-.907-3.063-.618-.416.107-1.227.53-2.73.19-2.607-.587-2.993.717-3.143 1.285-.15.57-.508 2.185-.508 2.185-.12.658-.277 1.802 3.77 2.572 1.885.358 1.98.846 2.062 1.195.15.63.39.988.658 1.167.27.18 0 .33-.298.358-.804.084-3.77-.766-5.525-1.764C6.372 9.012 6.35 8.22 6.677 7.55c-2.168-.233-3.797.205-4.09 1.23-.508 1.763 3.873 4.773 8.86 6.283 5.235 1.586 10.62.48 11.218-2.81.272-1.496-.988-2.602-3.11-3.08z"/></g></svg>